<svg width="512" height="512" viewBox="0 0 512 512" fill="none" xmlns="http://www.w3.org/2000/svg">
  <rect width="512" height="512" fill="white"/>
  <!-- Option 13: The Convergence Point (Focus of Energy) -->
  <g stroke="black" fill="none">
    <!-- Asymmetric, dense, high-speed 'flow' lines -->
    <!-- Representing the state of "Flow" in deep work -->
    <path d="M0 100 Q 256 256 512 100" stroke-width="0.1" opacity="0.2"/>
    <path d="M0 150 Q 256 256 512 150" stroke-width="0.2" opacity="0.3"/>
    <path d="M0 200 Q 256 256 512 200" stroke-width="0.3" opacity="0.4"/>
    <path d="M0 300 Q 256 256 512 300" stroke-width="0.3" opacity="0.4"/>
    <path d="M0 350 Q 256 256 512 350" stroke-width="0.2" opacity="0.3"/>
    <path d="M0 400 Q 256 256 512 400" stroke-width="0.1" opacity="0.2"/>
    
    <!-- Horizontal blueprint cross-sections -->
    <g stroke-width="0.5" opacity="0.5">
      <path d="M256 0 V 512" stroke-dasharray="2 10"/>
      <path d="M100 0 V 512" opacity="0.1"/>
      <path d="M412 0 V 512" opacity="0.1"/>
    </g>

    <!-- The Singular Focal Point (Highly Intricate) -->
    <g transform="translate(256, 256)">
       <!-- Nested precision circles -->
       <circle r="80" stroke-width="3"/>
       <circle r="70" stroke-width="0.5" stroke-dasharray="1 1"/>
       <circle r="20" fill="black"/>
       
       <!-- Intersecting "Focus Vanes" -->
       <g transform="rotate(45)">
         <path d="M-120 0 H 120" stroke-width="0.5" opacity="0.8"/>
         <path d="M0 -120 V 120" stroke-width="0.5" opacity="0.8"/>
       </g>
       
       <!-- Tech detail dots -->
       <circle cx="50" cy="50" r="3" fill="black"/>
       <circle cx="-50" cy="-50" r="2" fill="black"/>
    </g>
  </g>
</svg>
